ISO-10303-21;
HEADER;
/* Generated by software containing ST-Developer
 * from STEP Tools, Inc. (www.steptools.com) 
 */
/* OPTION: using custom renumber hook */

FILE_DESCRIPTION(
/* description */ ('STEP AP242 Edition 2',
'CAx-IF Rec.Pracs.---Representation and Presentation of Product Manufa
cturing Information (PMI)---4.0---2014-10-13',
'CAx-IF Rec.Pracs.---3D Tessellated Geometry---0.4---2014-09-14','2;1',
'CAx-IF Rec.Pracs.---User Defined Attributes---1.5---2016-08-15'),
/* implementation_level */ '2;1');

FILE_NAME(
/* name */ '6997d9758837cd6b8597a66a',
/* time_stamp */ '2026-02-20T03:48:05Z',
/* author */ (''),
/* organization */ (''),
/* preprocessor_version */ 'ST-DEVELOPER v20',
/* originating_system */ 'ONSHAPE BY PTC INC, 1.210',
/* authorisation */ '  ');

FILE_SCHEMA (('AP242_MANAGED_MODEL_BASED_3D_ENGINEERING_MIM_LF { 1 0 10303 442 3 1 4 }'));
ENDSEC;

DATA;
#10=SHAPE_REPRESENTATION_RELATIONSHIP('','',#107,#11);
#11=ADVANCED_BREP_SHAPE_REPRESENTATION('',(#105),#201);
#12=B_SPLINE_SURFACE_WITH_KNOTS('',1,1,((#192,#193),(#194,#195)),
 .PLANE_SURF.,.F.,.F.,.F.,(2,2),(2,2),(0.0419418409000892,0.956121153583821),
(0.0454383052179256,0.957268400885387),.PIECEWISE_BEZIER_KNOTS.);
#13=B_SPLINE_SURFACE_WITH_KNOTS('',1,1,((#196,#197),(#198,#199)),
 .PLANE_SURF.,.F.,.F.,.F.,(2,2),(2,2),(0.0419418409000892,0.956121153583821),
(0.0454383052179256,0.957268400885387),.PIECEWISE_BEZIER_KNOTS.);
#14=(
BOUNDED_CURVE()
B_SPLINE_CURVE(1,(#147,#148),.UNSPECIFIED.,.F.,.F.)
B_SPLINE_CURVE_WITH_KNOTS((2,2),(0.,1.),.PIECEWISE_BEZIER_KNOTS.)
CURVE()
GEOMETRIC_REPRESENTATION_ITEM()
RATIONAL_B_SPLINE_CURVE((1.,1.))
REPRESENTATION_ITEM('')
);
#15=(
BOUNDED_CURVE()
B_SPLINE_CURVE(1,(#152,#153),.UNSPECIFIED.,.F.,.F.)
B_SPLINE_CURVE_WITH_KNOTS((2,2),(0.,1.),.PIECEWISE_BEZIER_KNOTS.)
CURVE()
GEOMETRIC_REPRESENTATION_ITEM()
RATIONAL_B_SPLINE_CURVE((1.,1.))
REPRESENTATION_ITEM('')
);
#16=(
BOUNDED_CURVE()
B_SPLINE_CURVE(1,(#165,#166),.UNSPECIFIED.,.F.,.F.)
B_SPLINE_CURVE_WITH_KNOTS((2,2),(0.,1.),.PIECEWISE_BEZIER_KNOTS.)
CURVE()
GEOMETRIC_REPRESENTATION_ITEM()
RATIONAL_B_SPLINE_CURVE((1.,1.))
REPRESENTATION_ITEM('')
);
#17=(
BOUNDED_CURVE()
B_SPLINE_CURVE(1,(#170,#171),.UNSPECIFIED.,.F.,.F.)
B_SPLINE_CURVE_WITH_KNOTS((2,2),(0.,1.),.PIECEWISE_BEZIER_KNOTS.)
CURVE()
GEOMETRIC_REPRESENTATION_ITEM()
RATIONAL_B_SPLINE_CURVE((1.,1.))
REPRESENTATION_ITEM('')
);
#18=ORIENTED_EDGE('',*,*,#42,.F.);
#19=ORIENTED_EDGE('',*,*,#43,.T.);
#20=ORIENTED_EDGE('',*,*,#44,.T.);
#21=ORIENTED_EDGE('',*,*,#45,.F.);
#22=ORIENTED_EDGE('',*,*,#46,.T.);
#23=ORIENTED_EDGE('',*,*,#47,.T.);
#24=ORIENTED_EDGE('',*,*,#48,.F.);
#25=ORIENTED_EDGE('',*,*,#49,.F.);
#26=ORIENTED_EDGE('',*,*,#47,.F.);
#27=ORIENTED_EDGE('',*,*,#50,.T.);
#28=ORIENTED_EDGE('',*,*,#49,.T.);
#29=ORIENTED_EDGE('',*,*,#51,.F.);
#30=ORIENTED_EDGE('',*,*,#43,.F.);
#31=ORIENTED_EDGE('',*,*,#52,.F.);
#32=ORIENTED_EDGE('',*,*,#45,.T.);
#33=ORIENTED_EDGE('',*,*,#53,.T.);
#34=ORIENTED_EDGE('',*,*,#46,.F.);
#35=ORIENTED_EDGE('',*,*,#50,.F.);
#36=ORIENTED_EDGE('',*,*,#52,.T.);
#37=ORIENTED_EDGE('',*,*,#42,.T.);
#38=ORIENTED_EDGE('',*,*,#48,.T.);
#39=ORIENTED_EDGE('',*,*,#51,.T.);
#40=ORIENTED_EDGE('',*,*,#53,.F.);
#41=ORIENTED_EDGE('',*,*,#44,.F.);
#42=EDGE_CURVE('',#54,#55,#62,.T.);
#43=EDGE_CURVE('',#54,#56,#14,.T.);
#44=EDGE_CURVE('',#56,#57,#63,.T.);
#45=EDGE_CURVE('',#55,#57,#15,.T.);
#46=EDGE_CURVE('',#58,#59,#64,.T.);
#47=EDGE_CURVE('',#59,#60,#16,.T.);
#48=EDGE_CURVE('',#61,#60,#65,.T.);
#49=EDGE_CURVE('',#58,#61,#17,.T.);
#50=EDGE_CURVE('',#59,#58,#66,.T.);
#51=EDGE_CURVE('',#60,#61,#67,.T.);
#52=EDGE_CURVE('',#55,#54,#68,.T.);
#53=EDGE_CURVE('',#57,#56,#69,.T.);
#54=VERTEX_POINT('',#145);
#55=VERTEX_POINT('',#146);
#56=VERTEX_POINT('',#149);
#57=VERTEX_POINT('',#151);
#58=VERTEX_POINT('',#163);
#59=VERTEX_POINT('',#164);
#60=VERTEX_POINT('',#167);
#61=VERTEX_POINT('',#169);
#62=CIRCLE('',#109,9.);
#63=CIRCLE('',#110,9.);
#64=CIRCLE('',#111,8.);
#65=CIRCLE('',#112,8.);
#66=CIRCLE('',#113,8.);
#67=CIRCLE('',#114,8.);
#68=CIRCLE('',#115,9.);
#69=CIRCLE('',#116,9.);
#70=EDGE_LOOP('',(#18,#19,#20,#21));
#71=EDGE_LOOP('',(#22,#23,#24,#25));
#72=EDGE_LOOP('',(#26,#27,#28,#29));
#73=EDGE_LOOP('',(#30,#31,#32,#33));
#74=EDGE_LOOP('',(#34,#35));
#75=EDGE_LOOP('',(#36,#37));
#76=EDGE_LOOP('',(#38,#39));
#77=EDGE_LOOP('',(#40,#41));
#78=FACE_BOUND('',#70,.T.);
#79=FACE_BOUND('',#71,.T.);
#80=FACE_BOUND('',#72,.T.);
#81=FACE_BOUND('',#73,.T.);
#82=FACE_BOUND('',#74,.T.);
#83=FACE_BOUND('',#75,.T.);
#84=FACE_BOUND('',#76,.T.);
#85=FACE_BOUND('',#77,.T.);
#86=(
BOUNDED_SURFACE()
B_SPLINE_SURFACE(3,1,((#136,#137),(#138,#139),(#140,#141),(#142,#143)),
 .CYLINDRICAL_SURF.,.F.,.F.,.F.)
B_SPLINE_SURFACE_WITH_KNOTS((4,4),(2,2),(0.,0.5),(0.0454545454545454,0.954545454545454),
 .PIECEWISE_BEZIER_KNOTS.)
GEOMETRIC_REPRESENTATION_ITEM()
RATIONAL_B_SPLINE_SURFACE(((1.,1.),(0.333333333333333,0.333333333333333),
(0.333333333333333,0.333333333333333),(1.,1.)))
REPRESENTATION_ITEM('')
SURFACE()
);
#87=(
BOUNDED_SURFACE()
B_SPLINE_SURFACE(3,1,((#154,#155),(#156,#157),(#158,#159),(#160,#161)),
 .CYLINDRICAL_SURF.,.F.,.F.,.F.)
B_SPLINE_SURFACE_WITH_KNOTS((4,4),(2,2),(0.5,1.),(0.0454545454545454,0.954545454545454),
 .PIECEWISE_BEZIER_KNOTS.)
GEOMETRIC_REPRESENTATION_ITEM()
RATIONAL_B_SPLINE_SURFACE(((1.,1.),(0.333333333333333,0.333333333333333),
(0.333333333333333,0.333333333333333),(1.,1.)))
REPRESENTATION_ITEM('')
SURFACE()
);
#88=(
BOUNDED_SURFACE()
B_SPLINE_SURFACE(3,1,((#172,#173),(#174,#175),(#176,#177),(#178,#179)),
 .CYLINDRICAL_SURF.,.F.,.F.,.F.)
B_SPLINE_SURFACE_WITH_KNOTS((4,4),(2,2),(0.,0.5),(0.0454545454545454,0.954545454545454),
 .PIECEWISE_BEZIER_KNOTS.)
GEOMETRIC_REPRESENTATION_ITEM()
RATIONAL_B_SPLINE_SURFACE(((1.,1.),(0.333333333333333,0.333333333333333),
(0.333333333333333,0.333333333333333),(1.,1.)))
REPRESENTATION_ITEM('')
SURFACE()
);
#89=(
BOUNDED_SURFACE()
B_SPLINE_SURFACE(3,1,((#182,#183),(#184,#185),(#186,#187),(#188,#189)),
 .CYLINDRICAL_SURF.,.F.,.F.,.F.)
B_SPLINE_SURFACE_WITH_KNOTS((4,4),(2,2),(0.5,1.),(0.0454545454545454,0.954545454545454),
 .PIECEWISE_BEZIER_KNOTS.)
GEOMETRIC_REPRESENTATION_ITEM()
RATIONAL_B_SPLINE_SURFACE(((1.,1.),(0.333333333333333,0.333333333333333),
(0.333333333333333,0.333333333333333),(1.,1.)))
REPRESENTATION_ITEM('')
SURFACE()
);
#90=ADVANCED_FACE('',(#78),#86,.T.);
#91=ADVANCED_FACE('',(#79),#87,.F.);
#92=ADVANCED_FACE('',(#80),#88,.F.);
#93=ADVANCED_FACE('',(#81),#89,.T.);
#94=ADVANCED_FACE('',(#82,#83),#12,.T.);
#95=ADVANCED_FACE('',(#84,#85),#13,.F.);
#96=CLOSED_SHELL('',(#90,#91,#92,#93,#94,#95));
#97=STYLED_ITEM('',(#98),#105);
#98=PRESENTATION_STYLE_ASSIGNMENT((#99));
#99=SURFACE_STYLE_USAGE(.BOTH.,#100);
#100=SURFACE_SIDE_STYLE('',(#101));
#101=SURFACE_STYLE_FILL_AREA(#102);
#102=FILL_AREA_STYLE('',(#103));
#103=FILL_AREA_STYLE_COLOUR('',#104);
#104=COLOUR_RGB('',0.615686274509804,0.811764705882353,0.929411764705882);
#105=MANIFOLD_SOLID_BREP('Carbon Fiber Tube #1',#96);
#106=SHAPE_DEFINITION_REPRESENTATION(#206,#107);
#107=SHAPE_REPRESENTATION('Carbon Fiber Tube #1',(#108),#201);
#108=AXIS2_PLACEMENT_3D('',#135,#117,#118);
#109=AXIS2_PLACEMENT_3D('',#144,#119,#120);
#110=AXIS2_PLACEMENT_3D('',#150,#121,#122);
#111=AXIS2_PLACEMENT_3D('',#162,#123,#124);
#112=AXIS2_PLACEMENT_3D('',#168,#125,#126);
#113=AXIS2_PLACEMENT_3D('',#180,#127,#128);
#114=AXIS2_PLACEMENT_3D('',#181,#129,#130);
#115=AXIS2_PLACEMENT_3D('',#190,#131,#132);
#116=AXIS2_PLACEMENT_3D('',#191,#133,#134);
#117=DIRECTION('',(0.,0.,1.));
#118=DIRECTION('',(1.,0.,0.));
#119=DIRECTION('',(0.,-1.,0.));
#120=DIRECTION('',(0.,0.,-1.));
#121=DIRECTION('',(0.,-1.,0.));
#122=DIRECTION('',(0.,0.,-1.));
#123=DIRECTION('',(0.,-1.,0.));
#124=DIRECTION('',(0.,0.,-1.));
#125=DIRECTION('',(0.,-1.,0.));
#126=DIRECTION('',(0.,0.,-1.));
#127=DIRECTION('',(0.,-1.,0.));
#128=DIRECTION('',(0.,0.,-1.));
#129=DIRECTION('',(0.,-1.,0.));
#130=DIRECTION('',(0.,0.,-1.));
#131=DIRECTION('',(0.,-1.,0.));
#132=DIRECTION('',(0.,0.,-1.));
#133=DIRECTION('',(0.,-1.,0.));
#134=DIRECTION('',(0.,0.,-1.));
#135=CARTESIAN_POINT('',(0.,0.,0.));
#136=CARTESIAN_POINT('',(0.,-500.,9.));
#137=CARTESIAN_POINT('',(0.,-1.38777878078145E-14,9.));
#138=CARTESIAN_POINT('',(18.,-500.,9.));
#139=CARTESIAN_POINT('',(18.,3.64291929955129E-14,9.));
#140=CARTESIAN_POINT('',(18.,-500.,-9.));
#141=CARTESIAN_POINT('',(18.,3.64291929955129E-14,-9.));
#142=CARTESIAN_POINT('',(1.10218211923262E-15,-500.,-9.));
#143=CARTESIAN_POINT('',(1.10218211923262E-15,-1.38777878078145E-14,-9.));
#144=CARTESIAN_POINT('',(0.,-500.,5.51091059616309E-16));
#145=CARTESIAN_POINT('',(1.10218211923262E-15,-500.,-9.));
#146=CARTESIAN_POINT('',(0.,-500.,9.));
#147=CARTESIAN_POINT('',(1.10218211923262E-15,-525.,-9.));
#148=CARTESIAN_POINT('',(1.10218211923262E-15,25.,-9.));
#149=CARTESIAN_POINT('',(1.10218211923262E-15,0.,-9.));
#150=CARTESIAN_POINT('',(0.,0.,5.51091059616309E-16));
#151=CARTESIAN_POINT('',(0.,0.,9.));
#152=CARTESIAN_POINT('',(0.,-525.,9.));
#153=CARTESIAN_POINT('',(0.,25.,9.));
#154=CARTESIAN_POINT('',(9.79717439317883E-16,-500.,-8.));
#155=CARTESIAN_POINT('',(9.79717439317883E-16,-1.38777878078145E-14,-8.));
#156=CARTESIAN_POINT('',(-16.,-500.,-8.));
#157=CARTESIAN_POINT('',(-16.,3.64291929955129E-14,-8.));
#158=CARTESIAN_POINT('',(-16.,-500.,8.));
#159=CARTESIAN_POINT('',(-16.,3.64291929955129E-14,8.));
#160=CARTESIAN_POINT('',(0.,-500.,8.));
#161=CARTESIAN_POINT('',(0.,-1.38777878078145E-14,8.));
#162=CARTESIAN_POINT('',(0.,-500.,4.89858719658941E-16));
#163=CARTESIAN_POINT('',(0.,-500.,8.));
#164=CARTESIAN_POINT('',(9.79717439317883E-16,-500.,-8.));
#165=CARTESIAN_POINT('',(9.79717439317883E-16,-525.,-8.));
#166=CARTESIAN_POINT('',(9.79717439317883E-16,25.,-8.));
#167=CARTESIAN_POINT('',(9.79717439317883E-16,0.,-8.));
#168=CARTESIAN_POINT('',(0.,0.,4.89858719658941E-16));
#169=CARTESIAN_POINT('',(0.,0.,8.));
#170=CARTESIAN_POINT('',(0.,-525.,8.));
#171=CARTESIAN_POINT('',(0.,25.,8.));
#172=CARTESIAN_POINT('',(0.,-500.,8.));
#173=CARTESIAN_POINT('',(0.,-1.38777878078145E-14,8.));
#174=CARTESIAN_POINT('',(16.,-500.,8.));
#175=CARTESIAN_POINT('',(16.,3.64291929955129E-14,8.));
#176=CARTESIAN_POINT('',(16.,-500.,-8.));
#177=CARTESIAN_POINT('',(16.,3.64291929955129E-14,-8.));
#178=CARTESIAN_POINT('',(9.79717439317883E-16,-500.,-8.));
#179=CARTESIAN_POINT('',(9.79717439317883E-16,-1.38777878078145E-14,-8.));
#180=CARTESIAN_POINT('',(0.,-500.,4.89858719658941E-16));
#181=CARTESIAN_POINT('',(0.,0.,4.89858719658941E-16));
#182=CARTESIAN_POINT('',(1.10218211923262E-15,-500.,-9.));
#183=CARTESIAN_POINT('',(1.10218211923262E-15,4.5102810375397E-14,-9.));
#184=CARTESIAN_POINT('',(-18.,-500.,-9.));
#185=CARTESIAN_POINT('',(-18.,9.8879238130678E-14,-9.));
#186=CARTESIAN_POINT('',(-18.,-500.,9.));
#187=CARTESIAN_POINT('',(-18.,9.8879238130678E-14,9.));
#188=CARTESIAN_POINT('',(0.,-500.,9.));
#189=CARTESIAN_POINT('',(0.,4.5102810375397E-14,9.));
#190=CARTESIAN_POINT('',(0.,-500.,5.51091059616309E-16));
#191=CARTESIAN_POINT('',(0.,0.,5.51091059616309E-16));
#192=CARTESIAN_POINT('',(-9.17838616878037,-500.,-9.10832541536529));
#193=CARTESIAN_POINT('',(-9.17838616878037,-500.,9.16256130958103));
#194=CARTESIAN_POINT('',(9.13957322705117,-500.,-9.10832541536529));
#195=CARTESIAN_POINT('',(9.13957322705117,-500.,9.16256130958103));
#196=CARTESIAN_POINT('',(-9.17838616878037,0.,-9.10832541536529));
#197=CARTESIAN_POINT('',(-9.17838616878037,0.,9.16256130958103));
#198=CARTESIAN_POINT('',(9.13957322705117,0.,-9.10832541536529));
#199=CARTESIAN_POINT('',(9.13957322705117,0.,9.16256130958103));
#200=MECHANICAL_DESIGN_GEOMETRIC_PRESENTATION_REPRESENTATION('',(#97),#201);
#201=(
GEOMETRIC_REPRESENTATION_CONTEXT(3)
GLOBAL_UNCERTAINTY_ASSIGNED_CONTEXT((#202))
GLOBAL_UNIT_ASSIGNED_CONTEXT((#205,#204,#203))
REPRESENTATION_CONTEXT('Carbon Fiber Tube #1','TOP_LEVEL_ASSEMBLY_PART')
);
#202=UNCERTAINTY_MEASURE_WITH_UNIT(LENGTH_MEASURE(1.E-5),#205,
'DISTANCE_ACCURACY_VALUE','Maximum Tolerance applied to model');
#203=(
NAMED_UNIT(*)
SI_UNIT($,.STERADIAN.)
SOLID_ANGLE_UNIT()
);
#204=(
NAMED_UNIT(*)
PLANE_ANGLE_UNIT()
SI_UNIT($,.RADIAN.)
);
#205=(
LENGTH_UNIT()
NAMED_UNIT(*)
SI_UNIT(.MILLI.,.METRE.)
);
#206=PRODUCT_DEFINITION_SHAPE('','',#207);
#207=PRODUCT_DEFINITION('','',#209,#208);
#208=PRODUCT_DEFINITION_CONTEXT('',#215,'design');
#209=PRODUCT_DEFINITION_FORMATION_WITH_SPECIFIED_SOURCE('','',#211,
 .NOT_KNOWN.);
#210=PRODUCT_RELATED_PRODUCT_CATEGORY('','',(#211));
#211=PRODUCT('Carbon Fiber Tube #1','Carbon Fiber Tube #1',
'Carbon Fiber Tube #1',(#213));
#212=PRODUCT_CATEGORY('','');
#213=PRODUCT_CONTEXT('',#215,'mechanical');
#214=APPLICATION_PROTOCOL_DEFINITION('international standard',
'ap242_managed_model_based_3d_engineering',2020,#215);
#215=APPLICATION_CONTEXT('managed model based 3d engineering');
ENDSEC;
END-ISO-10303-21;
