ISO-10303-21;
HEADER;
/* Generated by software containing ST-Developer
 * from STEP Tools, Inc. (www.steptools.com) 
 */
/* OPTION: using custom renumber hook */

FILE_DESCRIPTION(
/* description */ ('STEP AP242 Edition 2',
'CAx-IF Rec.Pracs.---Representation and Presentation of Product Manufa
cturing Information (PMI)---4.0---2014-10-13',
'CAx-IF Rec.Pracs.---3D Tessellated Geometry---0.4---2014-09-14','2;1',
'CAx-IF Rec.Pracs.---User Defined Attributes---1.5---2016-08-15'),
/* implementation_level */ '2;1');

FILE_NAME(
/* name */ '6997dc508837cd6b8597b155',
/* time_stamp */ '2026-02-20T04:00:16Z',
/* author */ (''),
/* organization */ (''),
/* preprocessor_version */ 'ST-DEVELOPER v20',
/* originating_system */ 'ONSHAPE BY PTC INC, 1.210',
/* authorisation */ '  ');

FILE_SCHEMA (('AP242_MANAGED_MODEL_BASED_3D_ENGINEERING_MIM_LF { 1 0 10303 442 3 1 4 }'));
ENDSEC;

DATA;
#10=SHAPE_REPRESENTATION_RELATIONSHIP('','',#200,#11);
#11=ADVANCED_BREP_SHAPE_REPRESENTATION('',(#198),#473);
#12=B_SPLINE_SURFACE_WITH_KNOTS('',1,1,((#408,#409),(#410,#411)),
 .PLANE_SURF.,.F.,.F.,.F.,(2,2),(2,2),(0.0427315991146133,0.954561694782074),
(0.0438788464161791,0.958058159099911),.PIECEWISE_BEZIER_KNOTS.);
#13=B_SPLINE_SURFACE_WITH_KNOTS('',1,1,((#414,#415),(#416,#417)),
 .PLANE_SURF.,.F.,.F.,.F.,(2,2),(2,2),(0.0427315991146131,0.954561694782075),
(0.0419418409000891,0.956121153583821),.PIECEWISE_BEZIER_KNOTS.);
#14=(
BOUNDED_CURVE()
B_SPLINE_CURVE(3,(#287,#288,#289,#290),.UNSPECIFIED.,.F.,.F.)
B_SPLINE_CURVE_WITH_KNOTS((4,4),(0.,1.),.PIECEWISE_BEZIER_KNOTS.)
CURVE()
GEOMETRIC_REPRESENTATION_ITEM()
RATIONAL_B_SPLINE_CURVE((1.,0.890538240912179,0.890538240912179,1.))
REPRESENTATION_ITEM('')
);
#15=(
BOUNDED_CURVE()
B_SPLINE_CURVE(3,(#294,#295,#296,#297),.UNSPECIFIED.,.F.,.F.)
B_SPLINE_CURVE_WITH_KNOTS((4,4),(0.,1.),.PIECEWISE_BEZIER_KNOTS.)
CURVE()
GEOMETRIC_REPRESENTATION_ITEM()
RATIONAL_B_SPLINE_CURVE((1.,0.890538240912179,0.890538240912179,1.))
REPRESENTATION_ITEM('')
);
#16=(
BOUNDED_CURVE()
B_SPLINE_CURVE(1,(#309,#310),.UNSPECIFIED.,.F.,.F.)
B_SPLINE_CURVE_WITH_KNOTS((2,2),(0.,1.),.PIECEWISE_BEZIER_KNOTS.)
CURVE()
GEOMETRIC_REPRESENTATION_ITEM()
RATIONAL_B_SPLINE_CURVE((1.,1.))
REPRESENTATION_ITEM('')
);
#17=(
BOUNDED_CURVE()
B_SPLINE_CURVE(1,(#312,#313),.UNSPECIFIED.,.F.,.F.)
B_SPLINE_CURVE_WITH_KNOTS((2,2),(0.,1.),.PIECEWISE_BEZIER_KNOTS.)
CURVE()
GEOMETRIC_REPRESENTATION_ITEM()
RATIONAL_B_SPLINE_CURVE((1.,1.))
REPRESENTATION_ITEM('')
);
#18=(
BOUNDED_CURVE()
B_SPLINE_CURVE(1,(#325,#326),.UNSPECIFIED.,.F.,.F.)
B_SPLINE_CURVE_WITH_KNOTS((2,2),(0.,1.),.PIECEWISE_BEZIER_KNOTS.)
CURVE()
GEOMETRIC_REPRESENTATION_ITEM()
RATIONAL_B_SPLINE_CURVE((1.,1.))
REPRESENTATION_ITEM('')
);
#19=(
BOUNDED_CURVE()
B_SPLINE_CURVE(1,(#330,#331),.UNSPECIFIED.,.F.,.F.)
B_SPLINE_CURVE_WITH_KNOTS((2,2),(0.,1.),.PIECEWISE_BEZIER_KNOTS.)
CURVE()
GEOMETRIC_REPRESENTATION_ITEM()
RATIONAL_B_SPLINE_CURVE((1.,1.))
REPRESENTATION_ITEM('')
);
#20=(
BOUNDED_CURVE()
B_SPLINE_CURVE(1,(#342,#343),.UNSPECIFIED.,.F.,.F.)
B_SPLINE_CURVE_WITH_KNOTS((2,2),(0.,1.),.PIECEWISE_BEZIER_KNOTS.)
CURVE()
GEOMETRIC_REPRESENTATION_ITEM()
RATIONAL_B_SPLINE_CURVE((1.,1.))
REPRESENTATION_ITEM('')
);
#21=(
BOUNDED_CURVE()
B_SPLINE_CURVE(1,(#347,#348),.UNSPECIFIED.,.F.,.F.)
B_SPLINE_CURVE_WITH_KNOTS((2,2),(0.,1.),.PIECEWISE_BEZIER_KNOTS.)
CURVE()
GEOMETRIC_REPRESENTATION_ITEM()
RATIONAL_B_SPLINE_CURVE((1.,1.))
REPRESENTATION_ITEM('')
);
#22=(
BOUNDED_CURVE()
B_SPLINE_CURVE(3,(#371,#372,#373,#374,#375),.UNSPECIFIED.,.F.,.F.)
B_SPLINE_CURVE_WITH_KNOTS((4,1,4),(0.486505439063347,0.692897993823343,
1.),.UNSPECIFIED.)
CURVE()
GEOMETRIC_REPRESENTATION_ITEM()
RATIONAL_B_SPLINE_CURVE((1.,1.,1.,1.,1.))
REPRESENTATION_ITEM('')
);
#23=(
BOUNDED_CURVE()
B_SPLINE_CURVE(3,(#379,#380,#381,#382,#383),.UNSPECIFIED.,.F.,.F.)
B_SPLINE_CURVE_WITH_KNOTS((4,1,4),(0.486505439063347,0.692897993823343,
1.),.UNSPECIFIED.)
CURVE()
GEOMETRIC_REPRESENTATION_ITEM()
RATIONAL_B_SPLINE_CURVE((1.,1.,1.,1.,1.))
REPRESENTATION_ITEM('')
);
#24=ORIENTED_EDGE('',*,*,#78,.F.);
#25=ORIENTED_EDGE('',*,*,#79,.T.);
#26=ORIENTED_EDGE('',*,*,#80,.F.);
#27=ORIENTED_EDGE('',*,*,#81,.F.);
#28=ORIENTED_EDGE('',*,*,#82,.F.);
#29=ORIENTED_EDGE('',*,*,#83,.T.);
#30=ORIENTED_EDGE('',*,*,#84,.T.);
#31=ORIENTED_EDGE('',*,*,#85,.F.);
#32=ORIENTED_EDGE('',*,*,#86,.F.);
#33=ORIENTED_EDGE('',*,*,#87,.T.);
#34=ORIENTED_EDGE('',*,*,#88,.F.);
#35=ORIENTED_EDGE('',*,*,#89,.F.);
#36=ORIENTED_EDGE('',*,*,#90,.F.);
#37=ORIENTED_EDGE('',*,*,#80,.T.);
#38=ORIENTED_EDGE('',*,*,#91,.T.);
#39=ORIENTED_EDGE('',*,*,#92,.T.);
#40=ORIENTED_EDGE('',*,*,#93,.F.);
#41=ORIENTED_EDGE('',*,*,#90,.T.);
#42=ORIENTED_EDGE('',*,*,#94,.T.);
#43=ORIENTED_EDGE('',*,*,#95,.T.);
#44=ORIENTED_EDGE('',*,*,#96,.T.);
#45=ORIENTED_EDGE('',*,*,#97,.F.);
#46=ORIENTED_EDGE('',*,*,#95,.F.);
#47=ORIENTED_EDGE('',*,*,#98,.T.);
#48=ORIENTED_EDGE('',*,*,#86,.T.);
#49=ORIENTED_EDGE('',*,*,#97,.T.);
#50=ORIENTED_EDGE('',*,*,#99,.T.);
#51=ORIENTED_EDGE('',*,*,#100,.T.);
#52=ORIENTED_EDGE('',*,*,#88,.T.);
#53=ORIENTED_EDGE('',*,*,#101,.T.);
#54=ORIENTED_EDGE('',*,*,#102,.F.);
#55=ORIENTED_EDGE('',*,*,#92,.F.);
#56=ORIENTED_EDGE('',*,*,#103,.T.);
#57=ORIENTED_EDGE('',*,*,#82,.T.);
#58=ORIENTED_EDGE('',*,*,#99,.F.);
#59=ORIENTED_EDGE('',*,*,#96,.F.);
#60=ORIENTED_EDGE('',*,*,#100,.F.);
#61=ORIENTED_EDGE('',*,*,#91,.F.);
#62=ORIENTED_EDGE('',*,*,#104,.T.);
#63=ORIENTED_EDGE('',*,*,#93,.T.);
#64=ORIENTED_EDGE('',*,*,#102,.T.);
#65=ORIENTED_EDGE('',*,*,#87,.F.);
#66=ORIENTED_EDGE('',*,*,#98,.F.);
#67=ORIENTED_EDGE('',*,*,#94,.F.);
#68=ORIENTED_EDGE('',*,*,#89,.T.);
#69=ORIENTED_EDGE('',*,*,#101,.F.);
#70=ORIENTED_EDGE('',*,*,#83,.F.);
#71=ORIENTED_EDGE('',*,*,#103,.F.);
#72=ORIENTED_EDGE('',*,*,#85,.T.);
#73=ORIENTED_EDGE('',*,*,#78,.T.);
#74=ORIENTED_EDGE('',*,*,#79,.F.);
#75=ORIENTED_EDGE('',*,*,#84,.F.);
#76=ORIENTED_EDGE('',*,*,#81,.T.);
#77=ORIENTED_EDGE('',*,*,#104,.F.);
#78=EDGE_CURVE('',#105,#106,#122,.F.);
#79=EDGE_CURVE('',#105,#107,#14,.T.);
#80=EDGE_CURVE('',#108,#107,#123,.F.);
#81=EDGE_CURVE('',#106,#108,#15,.T.);
#82=EDGE_CURVE('',#109,#110,#124,.T.);
#83=EDGE_CURVE('',#109,#106,#16,.T.);
#84=EDGE_CURVE('',#106,#105,#125,.F.);
#85=EDGE_CURVE('',#110,#105,#17,.T.);
#86=EDGE_CURVE('',#111,#112,#126,.F.);
#87=EDGE_CURVE('',#111,#113,#18,.T.);
#88=EDGE_CURVE('',#114,#113,#127,.F.);
#89=EDGE_CURVE('',#115,#114,#19,.T.);
#90=EDGE_CURVE('',#112,#115,#128,.F.);
#91=EDGE_CURVE('',#107,#116,#20,.T.);
#92=EDGE_CURVE('',#116,#117,#129,.F.);
#93=EDGE_CURVE('',#108,#117,#21,.T.);
#94=EDGE_CURVE('',#115,#118,#130,.F.);
#95=EDGE_CURVE('',#118,#119,#22,.T.);
#96=EDGE_CURVE('',#119,#120,#131,.T.);
#97=EDGE_CURVE('',#112,#120,#23,.T.);
#98=EDGE_CURVE('',#118,#111,#132,.F.);
#99=EDGE_CURVE('',#120,#121,#133,.T.);
#100=EDGE_CURVE('',#121,#119,#134,.T.);
#101=EDGE_CURVE('',#113,#114,#135,.F.);
#102=EDGE_CURVE('',#117,#116,#136,.F.);
#103=EDGE_CURVE('',#110,#109,#137,.T.);
#104=EDGE_CURVE('',#107,#108,#138,.F.);
#105=VERTEX_POINT('',#285);
#106=VERTEX_POINT('',#286);
#107=VERTEX_POINT('',#291);
#108=VERTEX_POINT('',#293);
#109=VERTEX_POINT('',#307);
#110=VERTEX_POINT('',#308);
#111=VERTEX_POINT('',#323);
#112=VERTEX_POINT('',#324);
#113=VERTEX_POINT('',#327);
#114=VERTEX_POINT('',#329);
#115=VERTEX_POINT('',#332);
#116=VERTEX_POINT('',#344);
#117=VERTEX_POINT('',#346);
#118=VERTEX_POINT('',#370);
#119=VERTEX_POINT('',#376);
#120=VERTEX_POINT('',#378);
#121=VERTEX_POINT('',#406);
#122=CIRCLE('',#202,3.96446609406726);
#123=CIRCLE('',#203,2.5);
#124=CIRCLE('',#204,5.5);
#125=CIRCLE('',#205,3.96446609406726);
#126=CIRCLE('',#206,3.56656762652864);
#127=CIRCLE('',#207,2.63364264176575);
#128=CIRCLE('',#208,3.56656762652864);
#129=CIRCLE('',#209,2.5);
#130=CIRCLE('',#210,3.56656762652864);
#131=CIRCLE('',#211,7.5);
#132=CIRCLE('',#212,3.56656762652864);
#133=CIRCLE('',#213,7.5);
#134=CIRCLE('',#214,7.5);
#135=CIRCLE('',#215,2.63364264176575);
#136=CIRCLE('',#216,2.5);
#137=CIRCLE('',#217,5.5);
#138=CIRCLE('',#218,2.5);
#139=EDGE_LOOP('',(#24,#25,#26,#27));
#140=EDGE_LOOP('',(#28,#29,#30,#31));
#141=EDGE_LOOP('',(#32,#33,#34,#35,#36));
#142=EDGE_LOOP('',(#37,#38,#39,#40));
#143=EDGE_LOOP('',(#41,#42,#43,#44,#45));
#144=EDGE_LOOP('',(#46,#47,#48,#49,#50,#51));
#145=EDGE_LOOP('',(#52,#53));
#146=EDGE_LOOP('',(#54,#55));
#147=EDGE_LOOP('',(#56,#57));
#148=EDGE_LOOP('',(#58,#59,#60));
#149=EDGE_LOOP('',(#61,#62,#63,#64));
#150=EDGE_LOOP('',(#65,#66,#67,#68,#69));
#151=EDGE_LOOP('',(#70,#71,#72,#73));
#152=EDGE_LOOP('',(#74,#75,#76,#77));
#153=FACE_BOUND('',#139,.T.);
#154=FACE_BOUND('',#140,.T.);
#155=FACE_BOUND('',#141,.T.);
#156=FACE_BOUND('',#142,.T.);
#157=FACE_BOUND('',#143,.T.);
#158=FACE_BOUND('',#144,.T.);
#159=FACE_BOUND('',#145,.T.);
#160=FACE_BOUND('',#146,.T.);
#161=FACE_BOUND('',#147,.T.);
#162=FACE_BOUND('',#148,.T.);
#163=FACE_BOUND('',#149,.T.);
#164=FACE_BOUND('',#150,.T.);
#165=FACE_BOUND('',#151,.T.);
#166=FACE_BOUND('',#152,.T.);
#167=(
BOUNDED_SURFACE()
B_SPLINE_SURFACE(3,3,((#256,#257,#258,#259,#260,#261,#262),(#263,#264,#265,
#266,#267,#268,#269),(#270,#271,#272,#273,#274,#275,#276),(#277,#278,#279,
#280,#281,#282,#283)),.TOROIDAL_SURF.,.F.,.T.,.F.)
B_SPLINE_SURFACE_WITH_KNOTS((4,4),(4,3,4),(0.,1.),(0.,0.5,1.),
 .PIECEWISE_BEZIER_KNOTS.)
GEOMETRIC_REPRESENTATION_ITEM()
RATIONAL_B_SPLINE_SURFACE(((1.,0.333333333333333,0.333333333333333,1.,0.333333333333333,
0.333333333333333,1.),(0.890538240912179,0.29684608030406,0.29684608030406,
0.890538240912179,0.29684608030406,0.29684608030406,0.890538240912179),
(0.890538240912179,0.29684608030406,0.29684608030406,0.890538240912179,
0.29684608030406,0.29684608030406,0.890538240912179),(1.,0.333333333333333,
0.333333333333333,1.,0.333333333333333,0.333333333333333,1.)))
REPRESENTATION_ITEM('')
SURFACE()
);
#168=(
BOUNDED_SURFACE()
B_SPLINE_SURFACE(1,3,((#298,#299,#300,#301),(#302,#303,#304,#305)),
 .CONICAL_SURF.,.F.,.F.,.F.)
B_SPLINE_SURFACE_WITH_KNOTS((2,2),(4,4),(0.0137672170666954,0.289111558400601),
(0.,0.5),.PIECEWISE_BEZIER_KNOTS.)
GEOMETRIC_REPRESENTATION_ITEM()
RATIONAL_B_SPLINE_SURFACE(((1.,0.333333333333333,0.333333333333333,1.),
(1.,0.333333333333333,0.333333333333333,1.)))
REPRESENTATION_ITEM('')
SURFACE()
);
#169=(
BOUNDED_SURFACE()
B_SPLINE_SURFACE(1,3,((#314,#315,#316,#317),(#318,#319,#320,#321)),
 .CONICAL_SURF.,.F.,.F.,.F.)
B_SPLINE_SURFACE_WITH_KNOTS((2,2),(4,4),(0.0129099053756503,0.271108012888708),
(0.5,1.),.PIECEWISE_BEZIER_KNOTS.)
GEOMETRIC_REPRESENTATION_ITEM()
RATIONAL_B_SPLINE_SURFACE(((1.,0.333333333333333,0.333333333333333,1.),
(1.,0.333333333333333,0.333333333333333,1.)))
REPRESENTATION_ITEM('')
SURFACE()
);
#170=(
BOUNDED_SURFACE()
B_SPLINE_SURFACE(3,1,((#334,#335),(#336,#337),(#338,#339),(#340,#341)),
 .CYLINDRICAL_SURF.,.F.,.F.,.F.)
B_SPLINE_SURFACE_WITH_KNOTS((4,4),(2,2),(0.5,1.),(0.0454545454545452,0.954545454545455),
 .PIECEWISE_BEZIER_KNOTS.)
GEOMETRIC_REPRESENTATION_ITEM()
RATIONAL_B_SPLINE_SURFACE(((1.,1.),(0.333333333333333,0.333333333333333),
(0.333333333333333,0.333333333333333),(1.,1.)))
REPRESENTATION_ITEM('')
SURFACE()
);
#171=(
BOUNDED_SURFACE()
B_SPLINE_SURFACE(3,3,((#349,#350,#351,#352),(#353,#354,#355,#356),(#357,
#358,#359,#360),(#361,#362,#363,#364),(#365,#366,#367,#368)),
 .SURF_OF_REVOLUTION.,.F.,.F.,.F.)
B_SPLINE_SURFACE_WITH_KNOTS((4,1,4),(4,4),(0.516505439063347,0.692897993823343,
1.),(0.5,1.),.UNSPECIFIED.)
GEOMETRIC_REPRESENTATION_ITEM()
RATIONAL_B_SPLINE_SURFACE(((1.,0.333333333333333,0.333333333333333,1.),
(1.,0.333333333333333,0.333333333333333,1.),(1.,0.333333333333333,0.333333333333333,
1.),(1.,0.333333333333333,0.333333333333333,1.),(1.,0.333333333333333,0.333333333333333,
1.)))
REPRESENTATION_ITEM('')
SURFACE()
);
#172=(
BOUNDED_SURFACE()
B_SPLINE_SURFACE(3,3,((#384,#385,#386,#387),(#388,#389,#390,#391),(#392,
#393,#394,#395),(#396,#397,#398,#399),(#400,#401,#402,#403)),
 .SURF_OF_REVOLUTION.,.F.,.F.,.F.)
B_SPLINE_SURFACE_WITH_KNOTS((4,1,4),(4,4),(0.516505439063347,0.692897993823343,
1.),(0.,0.5),.UNSPECIFIED.)
GEOMETRIC_REPRESENTATION_ITEM()
RATIONAL_B_SPLINE_SURFACE(((1.,0.333333333333333,0.333333333333333,1.),
(1.,0.333333333333333,0.333333333333333,1.),(1.,0.333333333333333,0.333333333333333,
1.),(1.,0.333333333333333,0.333333333333333,1.),(1.,0.333333333333333,0.333333333333333,
1.)))
REPRESENTATION_ITEM('')
SURFACE()
);
#173=(
BOUNDED_SURFACE()
B_SPLINE_SURFACE(3,1,((#419,#420),(#421,#422),(#423,#424),(#425,#426)),
 .CYLINDRICAL_SURF.,.F.,.F.,.F.)
B_SPLINE_SURFACE_WITH_KNOTS((4,4),(2,2),(0.,0.5),(0.0454545454545453,0.954545454545455),
 .PIECEWISE_BEZIER_KNOTS.)
GEOMETRIC_REPRESENTATION_ITEM()
RATIONAL_B_SPLINE_SURFACE(((1.,1.),(0.333333333333333,0.333333333333333),
(0.333333333333333,0.333333333333333),(1.,1.)))
REPRESENTATION_ITEM('')
SURFACE()
);
#174=(
BOUNDED_SURFACE()
B_SPLINE_SURFACE(1,3,((#428,#429,#430,#431),(#432,#433,#434,#435)),
 .CONICAL_SURF.,.F.,.F.,.F.)
B_SPLINE_SURFACE_WITH_KNOTS((2,2),(4,4),(0.0129099053756282,0.271108012888708),
(0.,0.5),.PIECEWISE_BEZIER_KNOTS.)
GEOMETRIC_REPRESENTATION_ITEM()
RATIONAL_B_SPLINE_SURFACE(((1.,0.333333333333333,0.333333333333333,1.),
(1.,0.333333333333333,0.333333333333333,1.)))
REPRESENTATION_ITEM('')
SURFACE()
);
#175=(
BOUNDED_SURFACE()
B_SPLINE_SURFACE(1,3,((#436,#437,#438,#439),(#440,#441,#442,#443)),
 .CONICAL_SURF.,.F.,.F.,.F.)
B_SPLINE_SURFACE_WITH_KNOTS((2,2),(4,4),(0.013767217066695,0.289111558400601),
(0.5,1.),.PIECEWISE_BEZIER_KNOTS.)
GEOMETRIC_REPRESENTATION_ITEM()
RATIONAL_B_SPLINE_SURFACE(((1.,0.333333333333333,0.333333333333333,1.),
(1.,0.333333333333333,0.333333333333333,1.)))
REPRESENTATION_ITEM('')
SURFACE()
);
#176=(
BOUNDED_SURFACE()
B_SPLINE_SURFACE(3,3,((#444,#445,#446,#447,#448,#449,#450),(#451,#452,#453,
#454,#455,#456,#457),(#458,#459,#460,#461,#462,#463,#464),(#465,#466,#467,
#468,#469,#470,#471)),.TOROIDAL_SURF.,.F.,.T.,.F.)
B_SPLINE_SURFACE_WITH_KNOTS((4,4),(4,3,4),(0.,1.),(0.,0.5,1.),
 .PIECEWISE_BEZIER_KNOTS.)
GEOMETRIC_REPRESENTATION_ITEM()
RATIONAL_B_SPLINE_SURFACE(((1.,0.333333333333333,0.333333333333333,1.,0.333333333333333,
0.333333333333333,1.),(0.890538240912179,0.29684608030406,0.29684608030406,
0.890538240912179,0.29684608030406,0.29684608030406,0.890538240912179),
(0.890538240912179,0.29684608030406,0.29684608030406,0.890538240912179,
0.29684608030406,0.29684608030406,0.890538240912179),(1.,0.333333333333333,
0.333333333333333,1.,0.333333333333333,0.333333333333333,1.)))
REPRESENTATION_ITEM('')
SURFACE()
);
#177=ADVANCED_FACE('',(#153),#167,.T.);
#178=ADVANCED_FACE('',(#154),#168,.F.);
#179=ADVANCED_FACE('',(#155),#169,.T.);
#180=ADVANCED_FACE('',(#156),#170,.F.);
#181=ADVANCED_FACE('',(#157),#171,.T.);
#182=ADVANCED_FACE('',(#158),#172,.T.);
#183=ADVANCED_FACE('',(#159,#160),#12,.F.);
#184=ADVANCED_FACE('',(#161,#162),#13,.F.);
#185=ADVANCED_FACE('',(#163),#173,.F.);
#186=ADVANCED_FACE('',(#164),#174,.T.);
#187=ADVANCED_FACE('',(#165),#175,.F.);
#188=ADVANCED_FACE('',(#166),#176,.T.);
#189=CLOSED_SHELL('',(#177,#178,#179,#180,#181,#182,#183,#184,#185,#186,
#187,#188));
#190=STYLED_ITEM('',(#191),#198);
#191=PRESENTATION_STYLE_ASSIGNMENT((#192));
#192=SURFACE_STYLE_USAGE(.BOTH.,#193);
#193=SURFACE_SIDE_STYLE('',(#194));
#194=SURFACE_STYLE_FILL_AREA(#195);
#195=FILL_AREA_STYLE('',(#196));
#196=FILL_AREA_STYLE_COLOUR('',#197);
#197=COLOUR_RGB('',0.615686274509804,0.811764705882353,0.929411764705882);
#198=MANIFOLD_SOLID_BREP('Nail Dart',#189);
#199=SHAPE_DEFINITION_REPRESENTATION(#478,#200);
#200=SHAPE_REPRESENTATION('Nail Dart',(#201),#473);
#201=AXIS2_PLACEMENT_3D('',#255,#219,#220);
#202=AXIS2_PLACEMENT_3D('',#284,#221,#222);
#203=AXIS2_PLACEMENT_3D('',#292,#223,#224);
#204=AXIS2_PLACEMENT_3D('',#306,#225,#226);
#205=AXIS2_PLACEMENT_3D('',#311,#227,#228);
#206=AXIS2_PLACEMENT_3D('',#322,#229,#230);
#207=AXIS2_PLACEMENT_3D('',#328,#231,#232);
#208=AXIS2_PLACEMENT_3D('',#333,#233,#234);
#209=AXIS2_PLACEMENT_3D('',#345,#235,#236);
#210=AXIS2_PLACEMENT_3D('',#369,#237,#238);
#211=AXIS2_PLACEMENT_3D('',#377,#239,#240);
#212=AXIS2_PLACEMENT_3D('',#404,#241,#242);
#213=AXIS2_PLACEMENT_3D('',#405,#243,#244);
#214=AXIS2_PLACEMENT_3D('',#407,#245,#246);
#215=AXIS2_PLACEMENT_3D('',#412,#247,#248);
#216=AXIS2_PLACEMENT_3D('',#413,#249,#250);
#217=AXIS2_PLACEMENT_3D('',#418,#251,#252);
#218=AXIS2_PLACEMENT_3D('',#427,#253,#254);
#219=DIRECTION('',(0.,0.,1.));
#220=DIRECTION('',(1.,0.,0.));
#221=DIRECTION('',(0.,0.,1.));
#222=DIRECTION('',(1.,0.,0.));
#223=DIRECTION('',(0.,0.,-1.));
#224=DIRECTION('',(-1.,0.,0.));
#225=DIRECTION('',(0.,0.,-1.));
#226=DIRECTION('',(-1.,0.,0.));
#227=DIRECTION('',(0.,0.,1.));
#228=DIRECTION('',(1.,0.,0.));
#229=DIRECTION('',(0.,0.,-1.));
#230=DIRECTION('',(-1.,0.,0.));
#231=DIRECTION('',(0.,0.,1.));
#232=DIRECTION('',(1.,0.,0.));
#233=DIRECTION('',(0.,0.,-1.));
#234=DIRECTION('',(-1.,0.,0.));
#235=DIRECTION('',(0.,0.,1.));
#236=DIRECTION('',(1.,0.,0.));
#237=DIRECTION('',(0.,0.,-1.));
#238=DIRECTION('',(-1.,0.,0.));
#239=DIRECTION('',(0.,0.,-1.));
#240=DIRECTION('',(-1.,0.,0.));
#241=DIRECTION('',(0.,0.,-1.));
#242=DIRECTION('',(-1.,0.,0.));
#243=DIRECTION('',(0.,0.,-1.));
#244=DIRECTION('',(-1.,0.,0.));
#245=DIRECTION('',(0.,0.,-1.));
#246=DIRECTION('',(-1.,0.,0.));
#247=DIRECTION('',(0.,0.,1.));
#248=DIRECTION('',(1.,0.,0.));
#249=DIRECTION('',(0.,0.,1.));
#250=DIRECTION('',(1.,0.,0.));
#251=DIRECTION('',(0.,0.,-1.));
#252=DIRECTION('',(-1.,0.,0.));
#253=DIRECTION('',(0.,0.,-1.));
#254=DIRECTION('',(-1.,0.,0.));
#255=CARTESIAN_POINT('',(0.,0.,0.));
#256=CARTESIAN_POINT('',(-4.68958311073938,-1.53080849893419E-16,64.0643350595073));
#257=CARTESIAN_POINT('',(-4.68958311073938,9.37916622147875,64.0643350595073));
#258=CARTESIAN_POINT('',(4.68958311073938,9.37916622147875,64.0643350595073));
#259=CARTESIAN_POINT('',(4.68958311073938,-1.53080849893419E-16,64.0643350595073));
#260=CARTESIAN_POINT('',(4.68958311073938,-9.37916622147875,64.0643350595073));
#261=CARTESIAN_POINT('',(-4.68958311073938,-9.37916622147875,64.0643350595073));
#262=CARTESIAN_POINT('',(-4.68958311073938,-1.53080849893419E-16,64.0643350595073));
#263=CARTESIAN_POINT('',(-2.98991397905179,-1.53080849893419E-16,62.9092411103986));
#264=CARTESIAN_POINT('',(-2.98991397905179,5.97982795810358,62.9092411103986));
#265=CARTESIAN_POINT('',(2.98991397905179,5.97982795810358,62.9092411103986));
#266=CARTESIAN_POINT('',(2.98991397905179,-1.53080849893419E-16,62.9092411103986));
#267=CARTESIAN_POINT('',(2.98991397905179,-5.97982795810358,62.9092411103986));
#268=CARTESIAN_POINT('',(-2.98991397905179,-5.97982795810358,62.9092411103986));
#269=CARTESIAN_POINT('',(-2.98991397905179,-1.53080849893419E-16,62.9092411103986));
#270=CARTESIAN_POINT('',(-2.20349094188918,-1.53080849893419E-16,61.010647948318));
#271=CARTESIAN_POINT('',(-2.20349094188918,4.40698188377836,61.010647948318));
#272=CARTESIAN_POINT('',(2.20349094188918,4.40698188377836,61.010647948318));
#273=CARTESIAN_POINT('',(2.20349094188918,-1.53080849893419E-16,61.010647948318));
#274=CARTESIAN_POINT('',(2.20349094188918,-4.40698188377836,61.010647948318));
#275=CARTESIAN_POINT('',(-2.20349094188918,-4.40698188377836,61.010647948318));
#276=CARTESIAN_POINT('',(-2.20349094188918,-1.53080849893419E-16,61.010647948318));
#277=CARTESIAN_POINT('',(-2.58856374635656,-1.53080849893419E-16,58.9920256152059));
#278=CARTESIAN_POINT('',(-2.58856374635656,5.17712749271311,58.9920256152059));
#279=CARTESIAN_POINT('',(2.58856374635656,5.17712749271311,58.9920256152059));
#280=CARTESIAN_POINT('',(2.58856374635656,-1.53080849893419E-16,58.9920256152059));
#281=CARTESIAN_POINT('',(2.58856374635656,-5.17712749271311,58.9920256152059));
#282=CARTESIAN_POINT('',(-2.58856374635656,-5.17712749271311,58.9920256152059));
#283=CARTESIAN_POINT('',(-2.58856374635656,-1.53080849893419E-16,58.9920256152059));
#284=CARTESIAN_POINT('',(0.,-1.53080849893419E-16,63.4644660940673));
#285=CARTESIAN_POINT('',(3.96446609406726,-1.53080849893419E-16,63.4644660940673));
#286=CARTESIAN_POINT('',(-3.96446609406726,-1.53080849893419E-16,63.4644660940673));
#287=CARTESIAN_POINT('',(4.68958311073938,-1.53080849893419E-16,64.0643350595073));
#288=CARTESIAN_POINT('',(2.98991397905179,-1.53080849893419E-16,62.9092411103986));
#289=CARTESIAN_POINT('',(2.20349094188918,-1.53080849893419E-16,61.010647948318));
#290=CARTESIAN_POINT('',(2.58856374635656,-1.53080849893419E-16,58.9920256152059));
#291=CARTESIAN_POINT('',(2.5,1.53080849893419E-16,59.9289321881345));
#292=CARTESIAN_POINT('',(0.,-1.53080849893419E-16,59.9289321881345));
#293=CARTESIAN_POINT('',(-2.5,-1.53080849893419E-16,59.9289321881345));
#294=CARTESIAN_POINT('',(-4.68958311073938,-1.53080849893419E-16,64.0643350595073));
#295=CARTESIAN_POINT('',(-2.98991397905179,-1.53080849893419E-16,62.9092411103986));
#296=CARTESIAN_POINT('',(-2.20349094188918,-1.53080849893419E-16,61.010647948318));
#297=CARTESIAN_POINT('',(-2.58856374635656,-1.53080849893419E-16,58.9920256152059));
#298=CARTESIAN_POINT('',(5.5,-1.53080849893419E-16,65.));
#299=CARTESIAN_POINT('',(5.5,11.,65.));
#300=CARTESIAN_POINT('',(-5.5,11.,65.));
#301=CARTESIAN_POINT('',(-5.5,-1.53080849893419E-16,65.));
#302=CARTESIAN_POINT('',(3.96446609406727,-1.53080849893419E-16,63.4644660940673));
#303=CARTESIAN_POINT('',(3.96446609406727,7.92893218813455,63.4644660940673));
#304=CARTESIAN_POINT('',(-3.96446609406727,7.92893218813455,63.4644660940673));
#305=CARTESIAN_POINT('',(-3.96446609406727,-1.53080849893419E-16,63.4644660940673));
#306=CARTESIAN_POINT('',(0.,-1.53080849893419E-16,65.));
#307=CARTESIAN_POINT('',(-5.5,-1.53080849893419E-16,65.));
#308=CARTESIAN_POINT('',(5.5,-1.53080849893419E-16,65.));
#309=CARTESIAN_POINT('',(-5.57677669529664,-1.53080849893419E-16,65.0767766952966));
#310=CARTESIAN_POINT('',(-8.67361737988404E-16,-1.53080849893419E-16,59.5));
#311=CARTESIAN_POINT('',(0.,-1.53080849893419E-16,63.4644660940673));
#312=CARTESIAN_POINT('',(5.57677669529664,-1.53080849893419E-16,65.0767766952966));
#313=CARTESIAN_POINT('',(8.67361737988404E-16,-1.53080849893419E-16,59.5));
#314=CARTESIAN_POINT('',(-3.56656762652864,0.,35.9977479352677));
#315=CARTESIAN_POINT('',(-3.56656762652864,-7.13313525305728,35.9977479352677));
#316=CARTESIAN_POINT('',(3.56656762652864,-7.13313525305728,35.9977479352677));
#317=CARTESIAN_POINT('',(3.56656762652864,0.,35.9977479352677));
#318=CARTESIAN_POINT('',(-2.63364264176574,0.,35.));
#319=CARTESIAN_POINT('',(-2.63364264176574,-5.26728528353148,35.));
#320=CARTESIAN_POINT('',(2.63364264176574,-5.26728528353148,35.));
#321=CARTESIAN_POINT('',(2.63364264176574,0.,35.));
#322=CARTESIAN_POINT('',(0.,0.,35.9977479352677));
#323=CARTESIAN_POINT('',(-3.56656762652864,0.,35.9977479352677));
#324=CARTESIAN_POINT('',(0.,-3.56656762652864,35.9977479352677));
#325=CARTESIAN_POINT('',(-3.61321387576677,0.,36.0476353320311));
#326=CARTESIAN_POINT('',(-8.67361737988404E-16,0.,32.183362487904));
#327=CARTESIAN_POINT('',(-2.63364264176575,0.,35.));
#328=CARTESIAN_POINT('',(0.,0.,35.));
#329=CARTESIAN_POINT('',(2.63364264176575,0.,35.));
#330=CARTESIAN_POINT('',(3.61321387576677,0.,36.0476353320311));
#331=CARTESIAN_POINT('',(8.67361737988404E-16,0.,32.183362487904));
#332=CARTESIAN_POINT('',(3.56656762652864,0.,35.9977479352677));
#333=CARTESIAN_POINT('',(0.,0.,35.9977479352677));
#334=CARTESIAN_POINT('',(2.5,1.53080849893419E-16,59.9289321881345));
#335=CARTESIAN_POINT('',(2.5,1.53080849893419E-16,35.));
#336=CARTESIAN_POINT('',(2.5,-5.,59.9289321881345));
#337=CARTESIAN_POINT('',(2.5,-5.,35.));
#338=CARTESIAN_POINT('',(-2.5,-5.,59.9289321881345));
#339=CARTESIAN_POINT('',(-2.5,-5.,35.));
#340=CARTESIAN_POINT('',(-2.5,-1.53080849893419E-16,59.9289321881345));
#341=CARTESIAN_POINT('',(-2.5,-1.53080849893419E-16,35.));
#342=CARTESIAN_POINT('',(2.5,1.53080849893419E-16,61.1753787975412));
#343=CARTESIAN_POINT('',(2.5,1.53080849893419E-16,33.7535533905933));
#344=CARTESIAN_POINT('',(2.5,1.53080849893419E-16,35.));
#345=CARTESIAN_POINT('',(0.,-1.53080849893419E-16,35.));
#346=CARTESIAN_POINT('',(-2.5,-1.53080849893419E-16,35.));
#347=CARTESIAN_POINT('',(-2.5,-1.53080849893419E-16,61.1753787975412));
#348=CARTESIAN_POINT('',(-2.5,-1.53080849893419E-16,33.7535533905933));
#349=CARTESIAN_POINT('',(0.,3.56656762652864,35.9977479352677));
#350=CARTESIAN_POINT('',(7.13313525305727,3.56656762652863,35.9977479352677));
#351=CARTESIAN_POINT('',(7.13313525305727,-3.56656762652863,35.9977479352677));
#352=CARTESIAN_POINT('',(0.,-3.56656762652864,35.9977479352677));
#353=CARTESIAN_POINT('',(0.,3.35004370840734,39.6260200897454));
#354=CARTESIAN_POINT('',(6.70008741681468,3.35004370840734,39.6260200897454));
#355=CARTESIAN_POINT('',(6.70008741681468,-3.35004370840734,39.6260200897454));
#356=CARTESIAN_POINT('',(0.,-3.35004370840734,39.6260200897454));
#357=CARTESIAN_POINT('',(0.,3.56063064716275,49.9728367850381));
#358=CARTESIAN_POINT('',(7.1212612943255,3.56063064716275,49.9728367850381));
#359=CARTESIAN_POINT('',(7.1212612943255,-3.56063064716275,49.9728367850381));
#360=CARTESIAN_POINT('',(0.,-3.56063064716275,49.9728367850381));
#361=CARTESIAN_POINT('',(0.,7.5,59.));
#362=CARTESIAN_POINT('',(15.,7.5,59.));
#363=CARTESIAN_POINT('',(15.,-7.5,59.));
#364=CARTESIAN_POINT('',(0.,-7.5,59.));
#365=CARTESIAN_POINT('',(0.,7.5,65.));
#366=CARTESIAN_POINT('',(15.,7.5,65.));
#367=CARTESIAN_POINT('',(15.,-7.5,65.));
#368=CARTESIAN_POINT('',(0.,-7.5,65.));
#369=CARTESIAN_POINT('',(0.,0.,35.9977479352677));
#370=CARTESIAN_POINT('',(0.,3.56656762652864,35.9977479352677));
#371=CARTESIAN_POINT('',(0.,3.70150139617944,34.1608118534323));
#372=CARTESIAN_POINT('',(0.,3.33826636468778,38.3369353337826));
#373=CARTESIAN_POINT('',(0.,3.31619960256905,49.4127169443428));
#374=CARTESIAN_POINT('',(0.,7.5,59.));
#375=CARTESIAN_POINT('',(0.,7.5,65.));
#376=CARTESIAN_POINT('',(0.,7.5,65.));
#377=CARTESIAN_POINT('',(0.,0.,65.));
#378=CARTESIAN_POINT('',(0.,-7.5,65.));
#379=CARTESIAN_POINT('',(0.,-3.70150139617944,34.1608118534323));
#380=CARTESIAN_POINT('',(0.,-3.33826636468778,38.3369353337826));
#381=CARTESIAN_POINT('',(0.,-3.31619960256905,49.4127169443428));
#382=CARTESIAN_POINT('',(0.,-7.5,59.));
#383=CARTESIAN_POINT('',(0.,-7.5,65.));
#384=CARTESIAN_POINT('',(0.,-3.56656762652864,35.9977479352677));
#385=CARTESIAN_POINT('',(-7.13313525305727,-3.56656762652863,35.9977479352677));
#386=CARTESIAN_POINT('',(-7.13313525305727,3.56656762652863,35.9977479352677));
#387=CARTESIAN_POINT('',(0.,3.56656762652864,35.9977479352677));
#388=CARTESIAN_POINT('',(0.,-3.35004370840734,39.6260200897454));
#389=CARTESIAN_POINT('',(-6.70008741681468,-3.35004370840734,39.6260200897454));
#390=CARTESIAN_POINT('',(-6.70008741681468,3.35004370840734,39.6260200897454));
#391=CARTESIAN_POINT('',(0.,3.35004370840734,39.6260200897454));
#392=CARTESIAN_POINT('',(0.,-3.56063064716275,49.9728367850381));
#393=CARTESIAN_POINT('',(-7.1212612943255,-3.56063064716275,49.9728367850381));
#394=CARTESIAN_POINT('',(-7.1212612943255,3.56063064716275,49.9728367850381));
#395=CARTESIAN_POINT('',(0.,3.56063064716275,49.9728367850381));
#396=CARTESIAN_POINT('',(0.,-7.5,59.));
#397=CARTESIAN_POINT('',(-15.,-7.5,59.));
#398=CARTESIAN_POINT('',(-15.,7.5,59.));
#399=CARTESIAN_POINT('',(0.,7.5,59.));
#400=CARTESIAN_POINT('',(0.,-7.5,65.));
#401=CARTESIAN_POINT('',(-15.,-7.5,65.));
#402=CARTESIAN_POINT('',(-15.,7.5,65.));
#403=CARTESIAN_POINT('',(0.,7.5,65.));
#404=CARTESIAN_POINT('',(0.,0.,35.9977479352677));
#405=CARTESIAN_POINT('',(0.,0.,65.));
#406=CARTESIAN_POINT('',(-7.5,0.,65.));
#407=CARTESIAN_POINT('',(0.,0.,65.));
#408=CARTESIAN_POINT('',(-2.68121246363395,-2.6744855309225,35.));
#409=CARTESIAN_POINT('',(-2.68121246363395,2.68584324407699,35.));
#410=CARTESIAN_POINT('',(2.66534157877608,-2.6744855309225,35.));
#411=CARTESIAN_POINT('',(2.66534157877608,2.68584324407699,35.));
#412=CARTESIAN_POINT('',(0.,0.,35.));
#413=CARTESIAN_POINT('',(0.,-1.53080849893419E-16,35.));
#414=CARTESIAN_POINT('',(7.63546775798419,-7.64865514065031,65.));
#415=CARTESIAN_POINT('',(7.63546775798419,7.61631102254264,65.));
#416=CARTESIAN_POINT('',(-7.59027117947108,-7.64865514065031,65.));
#417=CARTESIAN_POINT('',(-7.59027117947108,7.61631102254264,65.));
#418=CARTESIAN_POINT('',(0.,-1.53080849893419E-16,65.));
#419=CARTESIAN_POINT('',(-2.5,-1.53080849893419E-16,59.9289321881345));
#420=CARTESIAN_POINT('',(-2.5,-1.53080849893419E-16,35.));
#421=CARTESIAN_POINT('',(-2.5,5.,59.9289321881345));
#422=CARTESIAN_POINT('',(-2.5,5.,35.));
#423=CARTESIAN_POINT('',(2.5,5.,59.9289321881345));
#424=CARTESIAN_POINT('',(2.5,5.,35.));
#425=CARTESIAN_POINT('',(2.5,1.53080849893419E-16,59.9289321881345));
#426=CARTESIAN_POINT('',(2.5,1.53080849893419E-16,35.));
#427=CARTESIAN_POINT('',(0.,-1.53080849893419E-16,59.9289321881345));
#428=CARTESIAN_POINT('',(3.56656762652872,0.,35.9977479352678));
#429=CARTESIAN_POINT('',(3.56656762652872,7.13313525305744,35.9977479352678));
#430=CARTESIAN_POINT('',(-3.56656762652872,7.13313525305744,35.9977479352678));
#431=CARTESIAN_POINT('',(-3.56656762652872,0.,35.9977479352678));
#432=CARTESIAN_POINT('',(2.63364264176574,0.,35.));
#433=CARTESIAN_POINT('',(2.63364264176574,5.26728528353148,35.));
#434=CARTESIAN_POINT('',(-2.63364264176574,5.26728528353148,35.));
#435=CARTESIAN_POINT('',(-2.63364264176574,0.,35.));
#436=CARTESIAN_POINT('',(-5.5,-1.53080849893419E-16,65.));
#437=CARTESIAN_POINT('',(-5.5,-11.,65.));
#438=CARTESIAN_POINT('',(5.5,-11.,65.));
#439=CARTESIAN_POINT('',(5.5,-1.53080849893419E-16,65.));
#440=CARTESIAN_POINT('',(-3.96446609406728,-1.53080849893419E-16,63.4644660940673));
#441=CARTESIAN_POINT('',(-3.96446609406728,-7.92893218813455,63.4644660940673));
#442=CARTESIAN_POINT('',(3.96446609406728,-7.92893218813455,63.4644660940673));
#443=CARTESIAN_POINT('',(3.96446609406728,-1.53080849893419E-16,63.4644660940673));
#444=CARTESIAN_POINT('',(-4.68958311073938,-1.53080849893419E-16,64.0643350595073));
#445=CARTESIAN_POINT('',(-4.68958311073938,9.37916622147875,64.0643350595073));
#446=CARTESIAN_POINT('',(4.68958311073938,9.37916622147875,64.0643350595073));
#447=CARTESIAN_POINT('',(4.68958311073938,-1.53080849893419E-16,64.0643350595073));
#448=CARTESIAN_POINT('',(4.68958311073938,-9.37916622147875,64.0643350595073));
#449=CARTESIAN_POINT('',(-4.68958311073938,-9.37916622147875,64.0643350595073));
#450=CARTESIAN_POINT('',(-4.68958311073938,-1.53080849893419E-16,64.0643350595073));
#451=CARTESIAN_POINT('',(-2.98991397905179,-1.53080849893419E-16,62.9092411103986));
#452=CARTESIAN_POINT('',(-2.98991397905179,5.97982795810358,62.9092411103986));
#453=CARTESIAN_POINT('',(2.98991397905179,5.97982795810358,62.9092411103986));
#454=CARTESIAN_POINT('',(2.98991397905179,-1.53080849893419E-16,62.9092411103986));
#455=CARTESIAN_POINT('',(2.98991397905179,-5.97982795810358,62.9092411103986));
#456=CARTESIAN_POINT('',(-2.98991397905179,-5.97982795810358,62.9092411103986));
#457=CARTESIAN_POINT('',(-2.98991397905179,-1.53080849893419E-16,62.9092411103986));
#458=CARTESIAN_POINT('',(-2.20349094188918,-1.53080849893419E-16,61.010647948318));
#459=CARTESIAN_POINT('',(-2.20349094188918,4.40698188377836,61.010647948318));
#460=CARTESIAN_POINT('',(2.20349094188918,4.40698188377836,61.010647948318));
#461=CARTESIAN_POINT('',(2.20349094188918,-1.53080849893419E-16,61.010647948318));
#462=CARTESIAN_POINT('',(2.20349094188918,-4.40698188377836,61.010647948318));
#463=CARTESIAN_POINT('',(-2.20349094188918,-4.40698188377836,61.010647948318));
#464=CARTESIAN_POINT('',(-2.20349094188918,-1.53080849893419E-16,61.010647948318));
#465=CARTESIAN_POINT('',(-2.58856374635656,-1.53080849893419E-16,58.9920256152059));
#466=CARTESIAN_POINT('',(-2.58856374635656,5.17712749271311,58.9920256152059));
#467=CARTESIAN_POINT('',(2.58856374635656,5.17712749271311,58.9920256152059));
#468=CARTESIAN_POINT('',(2.58856374635656,-1.53080849893419E-16,58.9920256152059));
#469=CARTESIAN_POINT('',(2.58856374635656,-5.17712749271311,58.9920256152059));
#470=CARTESIAN_POINT('',(-2.58856374635656,-5.17712749271311,58.9920256152059));
#471=CARTESIAN_POINT('',(-2.58856374635656,-1.53080849893419E-16,58.9920256152059));
#472=MECHANICAL_DESIGN_GEOMETRIC_PRESENTATION_REPRESENTATION('',(#190),
#473);
#473=(
GEOMETRIC_REPRESENTATION_CONTEXT(3)
GLOBAL_UNCERTAINTY_ASSIGNED_CONTEXT((#474))
GLOBAL_UNIT_ASSIGNED_CONTEXT((#477,#476,#475))
REPRESENTATION_CONTEXT('Nail Dart','TOP_LEVEL_ASSEMBLY_PART')
);
#474=UNCERTAINTY_MEASURE_WITH_UNIT(LENGTH_MEASURE(1.E-5),#477,
'DISTANCE_ACCURACY_VALUE','Maximum Tolerance applied to model');
#475=(
NAMED_UNIT(*)
SI_UNIT($,.STERADIAN.)
SOLID_ANGLE_UNIT()
);
#476=(
NAMED_UNIT(*)
PLANE_ANGLE_UNIT()
SI_UNIT($,.RADIAN.)
);
#477=(
LENGTH_UNIT()
NAMED_UNIT(*)
SI_UNIT(.MILLI.,.METRE.)
);
#478=PRODUCT_DEFINITION_SHAPE('','',#479);
#479=PRODUCT_DEFINITION('','',#481,#480);
#480=PRODUCT_DEFINITION_CONTEXT('',#487,'design');
#481=PRODUCT_DEFINITION_FORMATION_WITH_SPECIFIED_SOURCE('','',#483,
 .NOT_KNOWN.);
#482=PRODUCT_RELATED_PRODUCT_CATEGORY('','',(#483));
#483=PRODUCT('Nail Dart','Nail Dart','Nail Dart',(#485));
#484=PRODUCT_CATEGORY('','');
#485=PRODUCT_CONTEXT('',#487,'mechanical');
#486=APPLICATION_PROTOCOL_DEFINITION('international standard',
'ap242_managed_model_based_3d_engineering',2020,#487);
#487=APPLICATION_CONTEXT('managed model based 3d engineering');
ENDSEC;
END-ISO-10303-21;
